<svg xmlns="http://www.w3.org/2000/svg" xmlns:xlink="http://www.w3.org/1999/xlink" preserveAspectRatio="xMidYMid" width="29.03" height="28" viewBox="0 0 29.03 28">
  <defs>
    <style>
      .cls-1 {
        fill: #adadff;
        fill-rule: evenodd;
      }
    </style>
  </defs>
  <path d="M14.516,0.014 C6.493,0.014 -0.012,6.276 -0.012,14.001 C-0.012,21.726 6.493,27.989 14.516,27.989 C22.540,27.989 29.045,21.726 29.045,14.001 C29.045,6.276 22.540,0.014 14.516,0.014 ZM17.715,10.154 L16.114,10.154 C15.635,10.154 15.314,10.462 15.314,10.924 L15.314,12.460 L17.715,12.460 L17.715,14.772 L15.314,14.772 L15.314,20.155 L12.918,20.155 L12.918,14.772 L11.318,14.772 L11.318,12.460 L12.918,12.460 L12.918,10.537 C12.918,9.076 14.194,7.848 15.717,7.848 L17.715,7.848 L17.715,10.154 Z" class="cls-1"/>
</svg>
