<svg xmlns="http://www.w3.org/2000/svg" xmlns:xlink="http://www.w3.org/1999/xlink" preserveAspectRatio="xMidYMid" width="29.04" height="28" viewBox="0 0 29.04 28">
  <defs>
    <style>
      .cls-1 {
        fill: #adadff;
        fill-rule: evenodd;
      }
    </style>
  </defs>
  <path d="M14.520,27.989 C6.497,27.989 -0.008,21.726 -0.008,14.001 C-0.008,6.276 6.497,0.014 14.520,0.014 C22.544,0.014 29.048,6.276 29.048,14.001 C29.048,21.726 22.544,27.989 14.520,27.989 ZM21.876,11.853 C21.876,9.876 20.211,8.273 18.158,8.273 L10.882,8.273 C8.829,8.273 7.164,9.876 7.164,11.853 L7.164,16.150 C7.164,18.127 8.829,19.730 10.882,19.730 L18.158,19.730 C20.211,19.730 21.876,18.127 21.876,16.150 L21.876,11.853 ZM13.219,10.783 L17.679,13.999 L13.219,17.220 L13.219,10.783 Z" class="cls-1"/>
</svg>
