<svg xmlns="http://www.w3.org/2000/svg" xmlns:xlink="http://www.w3.org/1999/xlink" preserveAspectRatio="xMidYMid" width="27.34" height="26.906" viewBox="0 0 27.34 26.906">
  <defs>
    <style>
      .cls-1 {
        fill: #adadff;
        fill-rule: evenodd;
      }
    </style>
  </defs>
  <path d="M13.659,26.897 C6.110,26.897 -0.010,20.875 -0.010,13.447 C-0.010,6.020 6.110,-0.002 13.659,-0.002 C21.208,-0.002 27.328,6.020 27.328,13.447 C27.328,20.875 21.208,26.897 13.659,26.897 ZM18.695,9.485 C18.695,8.938 18.242,8.492 17.686,8.492 L9.631,8.492 C9.075,8.492 8.623,8.938 8.623,9.485 L8.623,17.410 C8.623,17.957 9.075,18.403 9.631,18.403 L17.686,18.403 C18.242,18.403 18.695,17.957 18.695,17.410 L18.695,9.485 ZM17.436,17.410 L9.882,17.410 C9.732,17.410 9.631,17.311 9.631,17.164 L9.631,12.951 L10.688,12.951 C10.636,13.101 10.636,13.300 10.636,13.447 C10.636,15.083 11.996,16.421 13.659,16.421 C15.321,16.421 16.681,15.083 16.681,13.447 C16.681,13.300 16.681,13.101 16.629,12.951 L17.686,12.951 L17.686,17.164 C17.686,17.311 17.585,17.410 17.436,17.410 ZM17.436,10.970 L16.427,10.970 C16.278,10.970 16.177,10.871 16.177,10.723 L16.177,9.731 C16.177,9.584 16.278,9.485 16.427,9.485 L17.436,9.485 C17.585,9.485 17.686,9.584 17.686,9.731 L17.686,10.723 C17.686,10.871 17.585,10.970 17.436,10.970 ZM13.659,15.429 C12.550,15.429 11.645,14.539 11.645,13.447 C11.645,12.356 12.550,11.466 13.659,11.466 C14.768,11.466 15.673,12.356 15.673,13.447 C15.673,14.539 14.768,15.429 13.659,15.429 Z" class="cls-1"/>
</svg>
