<svg xmlns="http://www.w3.org/2000/svg" xmlns:xlink="http://www.w3.org/1999/xlink" preserveAspectRatio="xMidYMid" width="29.06" height="28" viewBox="0 0 29.06 28">
  <defs>
    <style>
      .cls-1 {
        fill: #adadff;
        fill-rule: evenodd;
      }
    </style>
  </defs>
  <path d="M14.515,0.014 C6.491,0.014 -0.013,6.276 -0.013,14.001 C-0.013,21.726 6.491,27.989 14.515,27.989 C22.539,27.989 29.043,21.726 29.043,14.001 C29.043,6.276 22.539,0.014 14.515,0.014 ZM19.502,11.574 C19.409,15.742 16.680,18.639 12.540,18.820 C10.844,18.913 9.621,18.370 8.491,17.736 C9.713,17.918 11.318,17.462 12.162,16.736 C10.940,16.648 10.187,16.016 9.810,15.016 C10.187,15.109 10.564,15.016 10.844,15.016 C9.713,14.654 8.965,14.020 8.868,12.570 C9.153,12.751 9.525,12.844 9.901,12.844 C9.057,12.389 8.491,10.667 9.153,9.579 C10.375,10.848 11.878,11.937 14.327,12.118 C13.670,9.579 17.245,8.221 18.656,9.941 C19.312,9.853 19.786,9.579 20.254,9.402 C20.066,10.034 19.690,10.398 19.220,10.760 C19.690,10.667 20.163,10.579 20.539,10.398 C20.443,10.848 19.974,11.212 19.502,11.574 Z" class="cls-1"/>
</svg>
