<?xml version="1.0" encoding="utf-8"?>
<!DOCTYPE svg PUBLIC "-//W3C//DTD SVG 1.1//EN" "http://www.w3.org/Graphics/SVG/1.1/DTD/svg11.dtd">
<svg version="1.1" id="Layer_1" xmlns="http://www.w3.org/2000/svg" xmlns:xlink="http://www.w3.org/1999/xlink" x="0px" y="0px" width="400px" height="400px" viewBox="0 0 400 400" enable-background="new 0 0 400 400">
<g>
	<path fill="#FFBA55" d="M200,103.2l26.2,51.8l9.4,18.6l20.6,2.9l56.2,8l-40.1,38.1l-15.6,14.8l3.7,21.1l9.7,55.2L218.2,287l-18.2-9.4l-18.2,9.4l-52.1,26.7l9.7-55.2l3.7-21.1l-15.6-14.8l-40.1-38.1l56.2-8l20.6-2.9l9.4-18.6L200,103.2 M200,14.6zl-61.9,122.3L0,156.5l100,95.1L76.3,386L200,322.6L323.7,386L300,251.6l100-95.1l-138.1-19.6L200,14.6L200,14.6z"/>
</g>
</svg>
